<?xml version="1.0" standalone="no"?>
<!DOCTYPE svg PUBLIC "-//W3C//DTD SVG 20010904//EN"
 "http://www.w3.org/TR/2001/REC-SVG-20010904/DTD/svg10.dtd">
<svg version="1.0" xmlns="http://www.w3.org/2000/svg"
 width="1169.000000pt" height="1169.000000pt" viewBox="0 0 1169.000000 1169.000000"
 preserveAspectRatio="xMidYMid meet">
<metadata>
Created by potrace 1.14, written by Peter Selinger 2001-2017
</metadata>
<g transform="translate(0.000000,1169.000000) scale(0.100000,-0.100000)"
fill="#000000" stroke="none">
<path d="M5579 10506 c-2 -2 -50 -7 -106 -10 -55 -4 -112 -9 -125 -11 -12 -2
-48 -6 -78 -9 -30 -3 -65 -8 -76 -10 -24 -5 -66 -11 -134 -21 -56 -8 -320 -64
-330 -70 -4 -2 -22 -7 -41 -10 -54 -9 -292 -82 -429 -132 -211 -76 -479 -198
-655 -296 -33 -19 -82 -47 -110 -62 -51 -28 -352 -225 -383 -250 -9 -7 -62
-49 -118 -92 -473 -366 -869 -818 -1178 -1345 -51 -88 -226 -429 -226 -442 0
-3 -11 -29 -24 -58 -68 -150 -190 -500 -221 -635 -2 -10 -11 -45 -19 -79 -8
-34 -17 -72 -20 -85 -3 -13 -8 -35 -11 -49 -11 -50 -26 -126 -31 -160 -2 -19
-6 -42 -9 -50 -2 -8 -7 -37 -11 -65 -3 -27 -8 -52 -9 -55 -2 -3 -6 -41 -10
-85 -4 -44 -9 -87 -10 -96 -26 -137 -26 -796 0 -962 2 -12 6 -49 10 -82 11
-104 65 -413 81 -467 19 -64 49 -31 -648 -728 l-661 -662 234 -235 c222 -223
298 -288 380 -326 120 -55 288 -65 414 -22 43 14 99 38 124 52 26 15 179 159
351 330 238 236 309 300 318 291 7 -7 12 -16 12 -20 0 -12 180 -293 191 -296
5 -2 9 -8 9 -13 0 -6 5 -15 10 -22 6 -7 35 -46 66 -87 212 -290 537 -628 829
-862 391 -314 852 -573 1317 -741 117 -43 338 -114 376 -122 9 -2 62 -14 117
-28 100 -25 273 -61 350 -72 23 -3 51 -7 63 -10 12 -2 68 -9 125 -15 56 -6
116 -13 132 -15 158 -23 641 -23 870 0 138 14 264 30 309 40 12 2 37 7 56 10
19 2 47 7 63 10 15 3 37 7 50 9 17 3 142 31 227 51 119 28 490 147 575 185 11
5 40 17 65 28 111 46 144 62 290 134 197 97 270 139 481 275 175 113 391 278
553 423 77 68 313 306 387 390 341 386 612 821 821 1320 22 52 41 100 42 105
1 6 4 15 7 20 21 36 147 450 175 575 2 11 6 28 8 37 12 51 45 224 51 263 3 25
10 72 15 105 5 33 12 87 15 120 4 33 8 71 10 84 24 149 24 778 0 911 -1 8 -6
44 -10 80 -7 69 -31 239 -40 280 -3 14 -9 50 -15 80 -6 30 -12 64 -14 75 -3
11 -10 46 -17 78 l-12 58 654 655 c360 360 655 656 657 658 5 7 -483 488 -523
516 -201 138 -485 130 -675 -19 -25 -19 -170 -160 -323 -313 -154 -153 -280
-278 -282 -278 -2 0 -13 19 -25 43 -44 85 -256 395 -347 507 -136 169 -244
290 -370 414 -148 147 -192 187 -313 287 -452 375 -932 645 -1480 834 -214 73
-581 164 -775 190 -16 3 -47 7 -67 10 -20 4 -54 8 -75 10 -88 8 -160 17 -188
21 -34 6 -660 15 -666 10z"/>
</g>
</svg>
